<svg xmlns="http://www.w3.org/2000/svg" width="1920" height="1080" viewBox="0 0 1920 1080">
  <defs>
    <radialGradient id="bg" cx="50%" cy="42%" r="75%">
      <stop offset="0%" stop-color="#1c1c1c"/>
      <stop offset="100%" stop-color="#0a0a0a"/>
    </radialGradient>
    <radialGradient id="face2" cx="45%" cy="40%" r="65%">
      <stop offset="0%" stop-color="#2a2a2a"/>
      <stop offset="100%" stop-color="#141414"/>
    </radialGradient>
  </defs>
  <rect width="1920" height="1080" fill="url(#bg)"/>

  <g>
    <rect x="930" y="270" width="60" height="50" rx="6" fill="#1c1c1c" stroke="#C0C0C0" stroke-width="4"/>
    <rect x="930" y="600" width="60" height="50" rx="6" fill="#1c1c1c" stroke="#C0C0C0" stroke-width="4"/>
    <rect x="1085" y="445" width="26" height="30" rx="6" fill="#1c1c1c" stroke="#C0C0C0" stroke-width="4"/>

    <circle cx="960" cy="460" r="130" fill="url(#face2)" stroke="#C0C0C0" stroke-width="10"/>
    <circle cx="960" cy="460" r="112" fill="none" stroke="#6f6f6f" stroke-width="2" opacity="0.7"/>

    <line x1="960.0" y1="360.0" x2="960.0" y2="372.0" stroke="#C0C0C0" stroke-width="4" stroke-linecap="round"/>
    <line x1="1010.0" y1="373.4" x2="1004.0" y2="383.8" stroke="#C0C0C0" stroke-width="4" stroke-linecap="round"/>
    <line x1="1046.6" y1="410.0" x2="1036.2" y2="416.0" stroke="#C0C0C0" stroke-width="4" stroke-linecap="round"/>
    <line x1="1060.0" y1="460.0" x2="1048.0" y2="460.0" stroke="#C0C0C0" stroke-width="4" stroke-linecap="round"/>
    <line x1="1046.6" y1="510.0" x2="1036.2" y2="504.0" stroke="#C0C0C0" stroke-width="4" stroke-linecap="round"/>
    <line x1="1010.0" y1="546.6" x2="1004.0" y2="536.2" stroke="#C0C0C0" stroke-width="4" stroke-linecap="round"/>
    <line x1="960.0" y1="560.0" x2="960.0" y2="548.0" stroke="#C0C0C0" stroke-width="4" stroke-linecap="round"/>
    <line x1="910.0" y1="546.6" x2="916.0" y2="536.2" stroke="#C0C0C0" stroke-width="4" stroke-linecap="round"/>
    <line x1="873.4" y1="510.0" x2="883.8" y2="504.0" stroke="#C0C0C0" stroke-width="4" stroke-linecap="round"/>
    <line x1="860.0" y1="460.0" x2="872.0" y2="460.0" stroke="#C0C0C0" stroke-width="4" stroke-linecap="round"/>
    <line x1="873.4" y1="410.0" x2="883.8" y2="416.0" stroke="#C0C0C0" stroke-width="4" stroke-linecap="round"/>
    <line x1="910.0" y1="373.4" x2="916.0" y2="383.8" stroke="#C0C0C0" stroke-width="4" stroke-linecap="round"/>

    <line x1="960" y1="460" x2="912.4" y2="432.5" stroke="#C0C0C0" stroke-width="7" stroke-linecap="round"/>
    <line x1="960" y1="460" x2="1033.6" y2="417.5" stroke="#C0C0C0" stroke-width="5" stroke-linecap="round"/>
    <circle cx="960" cy="460" r="8" fill="#C0C0C0"/>
  </g>

  <text x="960" y="760" font-family="Georgia, 'Times New Roman', serif" font-size="52" fill="#C0C0C0"
        text-anchor="middle" letter-spacing="6" opacity="0.95">LUXURY WATCHES</text>
  <text x="960" y="880" font-family="Georgia, 'Times New Roman', serif" font-size="26" fill="#9a9a9a"
        text-anchor="middle" letter-spacing="10">MORGAN TRADING COMPANY</text>
  <text x="960" y="920" font-family="Arial, sans-serif" font-size="16" fill="#5c5c5c"
        text-anchor="middle" letter-spacing="2">ORIGINAL PLACEHOLDER ARTWORK — REPLACE IN /images</text>
  <rect x="40" y="40" width="1840" height="1000" fill="none" stroke="#444444" stroke-width="1" opacity="0.35"/>
</svg>
