<svg xmlns="http://www.w3.org/2000/svg" width="1920" height="1080" viewBox="0 0 1920 1080">
  <defs>
    <radialGradient id="bg" cx="50%" cy="42%" r="75%">
      <stop offset="0%" stop-color="#1c1c1c"/>
      <stop offset="100%" stop-color="#0a0a0a"/>
    </radialGradient>
    <radialGradient id="coin" cx="42%" cy="38%" r="70%">
      <stop offset="0%" stop-color="#e6e6e6"/>
      <stop offset="100%" stop-color="#b9b9b9"/>
    </radialGradient>
  </defs>
  <rect width="1920" height="1080" fill="url(#bg)"/>

  <g>
    <line x1="960.0" y1="310.0" x2="960.0" y2="300.0" stroke="#6f6f6f" stroke-width="2"/>
    <line x1="979.6" y1="311.3" x2="980.9" y2="301.4" stroke="#6f6f6f" stroke-width="2"/>
    <line x1="998.8" y1="315.1" x2="1001.4" y2="305.5" stroke="#6f6f6f" stroke-width="2"/>
    <line x1="1017.4" y1="321.4" x2="1021.2" y2="312.2" stroke="#6f6f6f" stroke-width="2"/>
    <line x1="1035.0" y1="330.1" x2="1040.0" y2="321.4" stroke="#6f6f6f" stroke-width="2"/>
    <line x1="1051.3" y1="341.0" x2="1057.4" y2="333.1" stroke="#6f6f6f" stroke-width="2"/>
    <line x1="1066.1" y1="353.9" x2="1073.1" y2="346.9" stroke="#6f6f6f" stroke-width="2"/>
    <line x1="1079.0" y1="368.7" x2="1086.9" y2="362.6" stroke="#6f6f6f" stroke-width="2"/>
    <line x1="1089.9" y1="385.0" x2="1098.6" y2="380.0" stroke="#6f6f6f" stroke-width="2"/>
    <line x1="1098.6" y1="402.6" x2="1107.8" y2="398.8" stroke="#6f6f6f" stroke-width="2"/>
    <line x1="1104.9" y1="421.2" x2="1114.5" y2="418.6" stroke="#6f6f6f" stroke-width="2"/>
    <line x1="1108.7" y1="440.4" x2="1118.6" y2="439.1" stroke="#6f6f6f" stroke-width="2"/>
    <line x1="1110.0" y1="460.0" x2="1120.0" y2="460.0" stroke="#6f6f6f" stroke-width="2"/>
    <line x1="1108.7" y1="479.6" x2="1118.6" y2="480.9" stroke="#6f6f6f" stroke-width="2"/>
    <line x1="1104.9" y1="498.8" x2="1114.5" y2="501.4" stroke="#6f6f6f" stroke-width="2"/>
    <line x1="1098.6" y1="517.4" x2="1107.8" y2="521.2" stroke="#6f6f6f" stroke-width="2"/>
    <line x1="1089.9" y1="535.0" x2="1098.6" y2="540.0" stroke="#6f6f6f" stroke-width="2"/>
    <line x1="1079.0" y1="551.3" x2="1086.9" y2="557.4" stroke="#6f6f6f" stroke-width="2"/>
    <line x1="1066.1" y1="566.1" x2="1073.1" y2="573.1" stroke="#6f6f6f" stroke-width="2"/>
    <line x1="1051.3" y1="579.0" x2="1057.4" y2="586.9" stroke="#6f6f6f" stroke-width="2"/>
    <line x1="1035.0" y1="589.9" x2="1040.0" y2="598.6" stroke="#6f6f6f" stroke-width="2"/>
    <line x1="1017.4" y1="598.6" x2="1021.2" y2="607.8" stroke="#6f6f6f" stroke-width="2"/>
    <line x1="998.8" y1="604.9" x2="1001.4" y2="614.5" stroke="#6f6f6f" stroke-width="2"/>
    <line x1="979.6" y1="608.7" x2="980.9" y2="618.6" stroke="#6f6f6f" stroke-width="2"/>
    <line x1="960.0" y1="610.0" x2="960.0" y2="620.0" stroke="#6f6f6f" stroke-width="2"/>
    <line x1="940.4" y1="608.7" x2="939.1" y2="618.6" stroke="#6f6f6f" stroke-width="2"/>
    <line x1="921.2" y1="604.9" x2="918.6" y2="614.5" stroke="#6f6f6f" stroke-width="2"/>
    <line x1="902.6" y1="598.6" x2="898.8" y2="607.8" stroke="#6f6f6f" stroke-width="2"/>
    <line x1="885.0" y1="589.9" x2="880.0" y2="598.6" stroke="#6f6f6f" stroke-width="2"/>
    <line x1="868.7" y1="579.0" x2="862.6" y2="586.9" stroke="#6f6f6f" stroke-width="2"/>
    <line x1="853.9" y1="566.1" x2="846.9" y2="573.1" stroke="#6f6f6f" stroke-width="2"/>
    <line x1="841.0" y1="551.3" x2="833.1" y2="557.4" stroke="#6f6f6f" stroke-width="2"/>
    <line x1="830.1" y1="535.0" x2="821.4" y2="540.0" stroke="#6f6f6f" stroke-width="2"/>
    <line x1="821.4" y1="517.4" x2="812.2" y2="521.2" stroke="#6f6f6f" stroke-width="2"/>
    <line x1="815.1" y1="498.8" x2="805.5" y2="501.4" stroke="#6f6f6f" stroke-width="2"/>
    <line x1="811.3" y1="479.6" x2="801.4" y2="480.9" stroke="#6f6f6f" stroke-width="2"/>
    <line x1="810.0" y1="460.0" x2="800.0" y2="460.0" stroke="#6f6f6f" stroke-width="2"/>
    <line x1="811.3" y1="440.4" x2="801.4" y2="439.1" stroke="#6f6f6f" stroke-width="2"/>
    <line x1="815.1" y1="421.2" x2="805.5" y2="418.6" stroke="#6f6f6f" stroke-width="2"/>
    <line x1="821.4" y1="402.6" x2="812.2" y2="398.8" stroke="#6f6f6f" stroke-width="2"/>
    <line x1="830.1" y1="385.0" x2="821.4" y2="380.0" stroke="#6f6f6f" stroke-width="2"/>
    <line x1="841.0" y1="368.7" x2="833.1" y2="362.6" stroke="#6f6f6f" stroke-width="2"/>
    <line x1="853.9" y1="353.9" x2="846.9" y2="346.9" stroke="#6f6f6f" stroke-width="2"/>
    <line x1="868.7" y1="341.0" x2="862.6" y2="333.1" stroke="#6f6f6f" stroke-width="2"/>
    <line x1="885.0" y1="330.1" x2="880.0" y2="321.4" stroke="#6f6f6f" stroke-width="2"/>
    <line x1="902.6" y1="321.4" x2="898.8" y2="312.2" stroke="#6f6f6f" stroke-width="2"/>
    <line x1="921.2" y1="315.1" x2="918.6" y2="305.5" stroke="#6f6f6f" stroke-width="2"/>
    <line x1="940.4" y1="311.3" x2="939.1" y2="301.4" stroke="#6f6f6f" stroke-width="2"/>

    <circle cx="960" cy="460" r="150" fill="url(#coin)" opacity="0.95" stroke="#6f6f6f" stroke-width="4"/>
    <circle cx="960" cy="460" r="115" fill="none" stroke="#6f6f6f" stroke-width="2" opacity="0.6"/>

    <line x1="960" y1="500" x2="870.7" y2="467.5" stroke="#8a8a8a" stroke-width="3" opacity="0.6"/>
    <line x1="960" y1="500" x2="887.2" y2="438.9" stroke="#8a8a8a" stroke-width="3" opacity="0.6"/>
    <line x1="960" y1="500" x2="912.5" y2="417.7" stroke="#8a8a8a" stroke-width="3" opacity="0.6"/>
    <line x1="960" y1="500" x2="943.5" y2="406.4" stroke="#8a8a8a" stroke-width="3" opacity="0.6"/>
    <line x1="960" y1="500" x2="976.5" y2="406.4" stroke="#8a8a8a" stroke-width="3" opacity="0.6"/>
    <line x1="960" y1="500" x2="1007.5" y2="417.7" stroke="#8a8a8a" stroke-width="3" opacity="0.6"/>
    <line x1="960" y1="500" x2="1032.8" y2="438.9" stroke="#8a8a8a" stroke-width="3" opacity="0.6"/>
    <line x1="960" y1="500" x2="1049.3" y2="467.5" stroke="#8a8a8a" stroke-width="3" opacity="0.6"/>

    <polygon points="960.0,383.0 965.3,397.7 980.9,398.2 968.6,407.8 972.9,422.8 960.0,414.0 947.1,422.8 951.4,407.8 939.1,398.2 954.7,397.7"
             fill="#6f6f6f" opacity="0.8"/>
  </g>

  <text x="960" y="760" font-family="Georgia, 'Times New Roman', serif" font-size="52" fill="#C0C0C0"
        text-anchor="middle" letter-spacing="6" opacity="0.95">PEACE DOLLARS</text>
  <text x="960" y="880" font-family="Georgia, 'Times New Roman', serif" font-size="26" fill="#9a9a9a"
        text-anchor="middle" letter-spacing="10">MORGAN TRADING COMPANY</text>
  <text x="960" y="920" font-family="Arial, sans-serif" font-size="16" fill="#5c5c5c"
        text-anchor="middle" letter-spacing="2">ORIGINAL PLACEHOLDER ARTWORK — REPLACE IN /images</text>
  <rect x="40" y="40" width="1840" height="1000" fill="none" stroke="#6f6f6f" stroke-width="1" opacity="0.35"/>
</svg>
